<mxfile host="app.diagrams.net" modified="2023-05-15T03:33:00.578Z" agent="Mozilla/5.0 (Windows NT 10.0; Win64; x64) AppleWebKit/537.36 (KHTML, like Gecko) Chrome/109.0.0.0 Safari/537.36" version="21.3.0" etag="3JZAxznwV23_zkVZwacT" type="github">
  <diagram name="第 1 页" id="r4GWReLpSxlrB1EONwOt">
    <mxGraphModel>
      <root>
        <mxCell id="0" />
        <mxCell id="1" parent="0" />
      </root>
    </mxGraphModel>
  </diagram>
</mxfile>
